<?xml version="1.0" encoding="UTF-8"?>
<svg xmlns="http://www.w3.org/2000/svg" version="1.1" viewBox="0 0 1000 544.3">
  <defs>
    <style>
      .cls-1 {
        fill: #ffffff;
      }
    </style>
  </defs>
  <g>
    <g id="Layer_1">
      <g>
        <g>
          <path class="cls-1" d="M161,288.2c3.3-1.8,5.8-4.5,7.5-8,1.7-3.4,2.5-7.4,2.5-12.1s-.8-8.7-2.5-12c-1.7-3.4-4.1-6-7.3-7.9-3.1-1.8-7-2.7-11.3-2.7h-15.1v45.4h14.6c4.6,0,8.5-.9,11.7-2.8ZM142.6,283.6v-30.7h6.9c3,0,5.6.6,7.6,1.8,2,1.2,3.5,2.9,4.5,5.1,1,2.3,1.6,5.1,1.6,8.3s-.5,6.1-1.6,8.4c-1,2.3-2.5,4-4.6,5.2-2.1,1.2-4.8,1.9-8.1,1.9h-6.3Z"/>
          <polygon class="cls-1" points="285.1 271.9 304.4 271.9 304.4 264.6 285.1 264.6 285.1 252.9 305.7 252.9 305.7 245.5 277.2 245.5 277.2 291 306 291 306 283.6 285.1 283.6 285.1 271.9"/>
          <polygon class="cls-1" points="441 276.7 419.3 245.5 412.2 245.5 412.2 291 420.2 291 420.2 260 441.7 291 448.8 291 448.8 245.5 441 245.5 441 276.7"/>
          <polygon class="cls-1" points="565.5 291 573.4 291 573.4 252.9 586.9 252.9 586.9 245.5 552.1 245.5 552.1 252.9 565.5 252.9 565.5 291"/>
          <path class="cls-1" d="M704.7,245.5l-16.7,45.4h8.4l4.3-12.1h15.3l4.3,12.1h8.4l-16.7-45.4h-7.3ZM708.4,257.4l5,14.2h-10.1l5-14.2Z"/>
          <polygon class="cls-1" points="833.4 245.5 833.4 291 861.2 291 861.2 283.6 841.4 283.6 841.4 245.5 833.4 245.5"/>
        </g>
        <g>
          <path class="cls-1" d="M164,414.9c-.3,1.3-.7,2.4-1.4,3.4-.7,1-1.4,1.8-2.4,2.5s-2,1.2-3.2,1.5c-3.3,1-7.1.6-10-1.2-1.9-1.2-3.3-2.9-4.5-5.2-1.1-2.3-1.7-5.3-1.7-8.7s.6-6.4,1.7-8.7c1.1-2.3,2.6-4.1,4.5-5.2,2.8-1.8,6.6-2.2,10-1.2,1.1.3,2.2.9,3.2,1.5.9.7,1.7,1.5,2.4,2.5.7,1,1.1,2.1,1.4,3.4l.2,1.1h8l-.3-1.6c-.4-2.3-1.2-4.5-2.3-6.3-1.1-1.9-2.5-3.5-4.2-4.7-1.7-1.3-3.5-2.3-5.6-3-2.1-.7-4.2-1-6.5-1-3.9,0-7.4,1-10.4,2.9-3,1.9-5.5,4.6-7.2,8.1-1.7,3.5-2.6,7.6-2.6,12.3s.9,8.8,2.6,12.3c1.7,3.5,4.1,6.2,7.2,8.2,3,1.9,6.6,2.9,10.4,2.9s4.5-.3,6.5-1c2-.7,3.9-1.7,5.6-3,1.7-1.3,3.1-2.9,4.2-4.8,1.1-1.8,1.9-4,2.3-6.3l.3-1.6h-8l-.2,1.1Z"/>
          <polygon class="cls-1" points="285.7 384.5 277.7 384.5 277.7 429.9 305.5 429.9 305.5 422.6 285.7 422.6 285.7 384.5"/>
          <rect class="cls-1" x="426.6" y="384.5" width="7.9" height="45.5"/>
          <polygon class="cls-1" points="579.9 415.6 558.3 384.5 551.2 384.5 551.2 429.9 559.1 429.9 559.1 398.9 580.7 429.9 587.8 429.9 587.8 384.5 579.9 384.5 579.9 415.6"/>
          <rect class="cls-1" x="704.4" y="384.5" width="7.9" height="45.5"/>
          <path class="cls-1" d="M858.9,413.8l-.2,1.1c-.3,1.3-.7,2.4-1.4,3.4-.7,1-1.5,1.8-2.4,2.5-.9.7-2,1.2-3.2,1.5-3.2,1-7.1.6-10-1.2-1.9-1.2-3.3-2.9-4.5-5.2-1.1-2.3-1.7-5.3-1.7-8.7s.6-6.4,1.7-8.7c1.1-2.3,2.6-4.1,4.5-5.2,2.9-1.8,6.6-2.2,10-1.2,1.2.3,2.2.9,3.2,1.5.9.7,1.7,1.5,2.4,2.5.7,1,1.1,2.1,1.4,3.4l.2,1.1h8l-.3-1.6c-.4-2.3-1.2-4.5-2.3-6.4-1.1-1.9-2.5-3.5-4.2-4.7-1.6-1.3-3.5-2.3-5.6-3-2.1-.7-4.2-1-6.5-1-3.9,0-7.4,1-10.4,2.9-3,1.9-5.5,4.6-7.2,8.1-1.7,3.5-2.6,7.6-2.6,12.3s.9,8.8,2.6,12.3c1.7,3.5,4.2,6.2,7.2,8.2,3,1.9,6.6,2.9,10.4,2.9s4.5-.3,6.5-1c2-.7,3.9-1.7,5.6-3,1.7-1.3,3.1-2.9,4.2-4.8,1.1-1.9,1.9-4,2.3-6.3l.3-1.6h-8Z"/>
        </g>
        <g>
          <path class="cls-1" d="M560.2,135.4h8.2l9,16.7h9.2l-10-18.3c.1,0,.3-.1.4-.2,2.4-1.2,4.1-3,5.3-5.1,1.1-2.1,1.7-4.6,1.7-7.3s-.6-5.2-1.7-7.4c-1.2-2.2-3-4-5.3-5.2-2.4-1.2-5.3-1.9-8.9-1.9h-15.8v45.5h7.9v-16.7ZM560.2,114h7.7c2.1,0,3.7.3,4.9.9,1.1.5,1.9,1.3,2.4,2.3.5,1.1.8,2.4.8,3.9s-.3,2.8-.8,3.8c-.5,1-1.3,1.7-2.4,2.2-1.2.6-2.9.9-4.9.9h-7.8v-14Z"/>
          <path class="cls-1" d="M699,150.3c2.7,1.4,5.8,2.1,9.4,2.1s6.7-.7,9.4-2.1c2.7-1.4,4.8-3.4,6.3-5.9,1.5-2.5,2.2-5.4,2.2-8.5v-29.6h-7.9v29.2c0,1.8-.4,3.5-1.2,4.9-.8,1.4-1.9,2.5-3.4,3.3-2.9,1.6-8,1.6-10.9,0-1.5-.8-2.6-1.9-3.4-3.3-.8-1.4-1.2-3-1.2-4.8v-29.2h-7.9v29.6c0,3.2.8,6,2.2,8.5,1.5,2.5,3.6,4.5,6.3,5.9Z"/>
          <polygon class="cls-1" points="843.3 152.1 851.3 152.1 851.3 114 864.7 114 864.7 106.6 829.9 106.6 829.9 114 843.3 114 843.3 152.1"/>
          <path class="cls-1" d="M162.1,150.4c2.4-1.1,4.1-2.7,5.2-4.6,1.1-1.9,1.6-4.1,1.6-6.4s-.5-4.7-1.5-6.4c-1-1.7-2.3-3.1-3.8-4.1-.4-.2-.7-.4-1.1-.6.2-.1.4-.2.6-.4,1.2-.8,2.2-1.9,3-3.3.8-1.4,1.1-3.1,1.1-5.2s-.5-4.5-1.6-6.4c-1.1-2-2.7-3.5-4.9-4.7-2.1-1.1-4.8-1.7-8-1.7h-16.3v45.5h16.8c3.6,0,6.5-.5,8.8-1.6ZM158.7,122.5c-.6.9-1.4,1.6-2.4,2.1-1.1.5-2.3.8-3.6.8h-8.2v-11.4h8.4c2.4,0,4.2.5,5.2,1.6,1,1,1.5,2.3,1.5,3.8s-.3,2.3-.9,3.1ZM161.2,139.4c0,1.5-.6,2.7-1.7,3.8-1.1,1.1-3.2,1.6-6.3,1.6h-8.9v-12h9.1c1.6,0,3,.3,4.2.9,1.2.6,2,1.4,2.6,2.5s.9,2.1.9,3.3Z"/>
          <polygon class="cls-1" points="285.1 133 304.4 133 304.4 125.6 285.1 125.6 285.1 114 305.7 114 305.7 106.6 277.2 106.6 277.2 152.1 306 152.1 306 144.7 285.1 144.7 285.1 133"/>
          <rect class="cls-1" x="426.6" y="106.6" width="7.9" height="45.5"/>
        </g>
      </g>
    </g>
  </g>
</svg>
